<svg width="213" height="27" viewBox="0 0 213 27" fill="none" xmlns="http://www.w3.org/2000/svg">
<path d="M175.952 0.842651H210.952C211.176 0.846942 211.396 0.895256 211.601 0.984741C211.805 1.07423 211.99 1.2031 212.145 1.36414C212.3 1.52517 212.421 1.71517 212.503 1.92322C212.584 2.13126 212.624 2.3532 212.619 2.57654V24.2509C212.624 24.4742 212.584 24.6961 212.503 24.9042C212.421 25.1122 212.3 25.3022 212.145 25.4633C211.99 25.6243 211.805 25.7532 211.601 25.8427C211.396 25.9321 211.176 25.9804 210.952 25.9847H175.952C175.729 25.9804 175.509 25.9321 175.304 25.8427C175.099 25.7532 174.914 25.6243 174.759 25.4633C174.605 25.3022 174.483 25.1122 174.402 24.9042C174.32 24.6961 174.281 24.4742 174.285 24.2509V2.57654C174.281 2.3532 174.32 2.13126 174.402 1.92322C174.483 1.71517 174.605 1.52517 174.759 1.36414C174.914 1.2031 175.099 1.07423 175.304 0.984741C175.509 0.895256 175.729 0.846942 175.952 0.842651Z" fill="url(#paint0_linear_8_1873)"/>
<path d="M204.257 18.0687L204.005 16.7738H201.271L200.822 18.0687H198.58L201.787 10.0038C201.862 9.80379 201.998 9.63277 202.177 9.51599C202.356 9.39922 202.567 9.3429 202.78 9.35486H204.509L206.231 18.0697L204.257 18.0687ZM203.021 11.7245L201.891 14.9857H203.657L203.021 11.7245ZM195.734 11.8387C195.734 12.7907 198.734 12.9945 198.734 15.1835C198.734 17.2915 196.519 18.0668 195.052 18.0668C194.218 18.0806 193.391 17.9183 192.624 17.5907L192.944 15.7006C193.824 16.4206 196.493 16.6258 196.493 15.4828C196.493 14.3398 193.518 14.3126 193.518 12.1366C193.518 9.8246 196.052 9.34851 197.118 9.34851C197.779 9.36544 198.432 9.48957 199.052 9.7157L198.745 11.5248C197.827 11.0128 195.732 10.8907 195.732 11.8427L195.734 11.8387ZM189.15 18.0687L190.494 9.35339H192.645L191.301 18.0687H189.15ZM183.993 18.0687L182.127 10.5067C182.457 10.7126 182.771 10.9419 183.068 11.1927C183.965 11.9603 184.648 12.9472 185.049 14.0575L185.292 15.3485L187.343 9.35486H189.658L186.236 18.0697L183.993 18.0687ZM180.199 9.59265L180.099 9.56287L180.199 9.59265ZM179.979 9.52771L179.931 9.51453L179.979 9.52771ZM180.508 9.69763L180.38 9.65271L180.508 9.69763ZM181.999 10.4227C181.933 10.3814 181.866 10.3416 181.799 10.3036C181.863 10.3476 181.929 10.3856 181.997 10.4276L181.999 10.4227ZM181.485 10.1327C181.427 10.1027 181.367 10.0708 181.31 10.0428C181.365 10.0758 181.424 10.1076 181.483 10.1376L181.485 10.1327ZM180.95 9.87585L180.832 9.82458L180.95 9.87585Z" fill="#494CA3"/>
<path d="M185.046 14.0616L184.322 10.1437C184.284 9.90752 184.157 9.69482 183.968 9.54894C183.778 9.40306 183.54 9.33532 183.302 9.359H179.912L179.872 9.50597C181.049 9.82336 182.14 10.4008 183.064 11.1959C183.962 11.9637 184.645 12.9509 185.046 14.0616Z" fill="#FFC000"/>
<path d="M117.899 1.00378H152.634C153.083 1.01584 153.509 1.2048 153.819 1.52966C154.129 1.85453 154.297 2.28881 154.288 2.73767V24.4105C154.297 24.8594 154.129 25.2937 153.819 25.6185C153.509 25.9434 153.083 26.1324 152.634 26.1444H117.899C117.451 26.1324 117.025 25.9434 116.715 25.6185C116.405 25.2937 116.236 24.8594 116.245 24.4105V2.73865C116.236 2.28961 116.405 1.85523 116.714 1.53015C117.024 1.20507 117.45 1.01584 117.899 1.00378Z" fill="#F1F1F1"/>
<path d="M116.657 25.5536C116.392 25.2328 116.247 24.8289 116.248 24.4125V2.73865C116.239 2.28961 116.408 1.85523 116.717 1.53015C117.027 1.20507 117.453 1.01584 117.902 1.00378H152.636C153.058 1.00473 153.462 1.17124 153.762 1.46765L116.662 25.5536H116.657Z" fill="white" fill-opacity="0.73"/>
<path d="M130.893 18.9687L132.193 16.6186L131.469 10.9746H133.24L133.526 14.3149L135.259 10.9746H137.087L132.878 18.9687H130.893ZM125.34 14.7529C125.613 13.3789 126.94 12.9428 128.902 12.9428C129.019 12.3318 128.63 12.1786 127.968 12.2016C127.385 12.2299 126.811 12.3631 126.274 12.5947L126.429 11.2216C127.073 11.0215 127.741 10.9041 128.414 10.8725C129.64 10.8505 131.003 11.2419 130.692 12.8349L129.933 16.5849H128.162L128.278 16.0166C128.073 16.2287 127.827 16.398 127.555 16.5141C127.284 16.6302 126.992 16.6909 126.696 16.6928C125.857 16.6888 125.11 16.1425 125.341 14.7485L125.34 14.7529ZM127.151 14.6655C127.095 14.7444 127.064 14.838 127.06 14.9345C127.056 15.0311 127.081 15.1269 127.13 15.2099C127.179 15.293 127.252 15.36 127.338 15.4028C127.425 15.4455 127.522 15.462 127.618 15.4506C127.837 15.4604 128.053 15.3907 128.224 15.2543C128.396 15.118 128.513 14.9245 128.553 14.7089C128.576 14.5404 128.61 14.3734 128.653 14.2089H128.205C128.006 14.1904 127.805 14.2221 127.621 14.3012C127.436 14.3803 127.275 14.5041 127.151 14.6616V14.6655ZM119.24 16.5849L120.704 9.41255H124.011C124.306 9.40994 124.597 9.47816 124.86 9.61128C125.123 9.7444 125.351 9.9386 125.523 10.1777C125.696 10.4168 125.808 10.6937 125.852 10.9853C125.895 11.2769 125.868 11.5745 125.772 11.8535C125.677 12.5093 125.348 13.1088 124.846 13.5415C124.344 13.9742 123.703 14.2115 123.04 14.2089H121.657L121.182 16.5849H119.24ZM121.933 12.8349H122.843C123.109 12.8137 123.362 12.7062 123.562 12.5292C123.762 12.3523 123.899 12.1151 123.952 11.8535C123.994 11.7458 124.01 11.63 123.997 11.5151C123.985 11.4002 123.945 11.2899 123.881 11.1938C123.817 11.0976 123.73 11.0186 123.629 10.9628C123.528 10.9071 123.415 10.8762 123.299 10.8735H122.349L121.933 12.8349Z" fill="#3284AE"/>
<path d="M142.557 14.7484C142.833 13.3744 144.174 12.9398 146.163 12.9398C146.301 12.3278 145.907 12.1766 145.237 12.1986C144.641 12.2293 144.055 12.3619 143.503 12.5907L143.661 11.2177C144.321 11.02 145.002 10.903 145.69 10.8695C146.931 10.8475 148.29 11.2384 147.975 12.8304L147.207 16.5795H145.434L145.552 16.0135C145.123 16.4427 144.541 16.6858 143.934 16.6898C143.076 16.6888 142.32 16.1434 142.557 14.7484ZM144.39 14.6615C144.336 14.7431 144.307 14.8386 144.306 14.9364C144.305 15.0342 144.332 15.13 144.384 15.2128C144.436 15.2956 144.511 15.3618 144.599 15.4032C144.688 15.4446 144.786 15.4598 144.883 15.4467C145.101 15.4564 145.315 15.3865 145.485 15.2504C145.656 15.1143 145.771 14.921 145.809 14.7064C145.848 14.5314 145.868 14.3784 145.909 14.2064H145.476C145.271 14.1857 145.064 14.2165 144.874 14.2958C144.684 14.375 144.517 14.5003 144.387 14.6605L144.39 14.6615ZM148.026 16.5795L149.492 9.38562H151.312L149.827 16.5795H148.026ZM136.457 16.5795L137.919 9.40857H141.219C141.513 9.40777 141.803 9.47706 142.065 9.61072C142.327 9.74438 142.553 9.93857 142.725 10.1771C142.897 10.4157 143.009 10.6916 143.053 10.9823C143.096 11.273 143.07 11.57 142.976 11.8485C142.881 12.5067 142.55 13.1079 142.046 13.5409C141.541 13.9739 140.896 14.2094 140.231 14.2035H138.868L138.374 16.5785L136.457 16.5795ZM139.144 12.8304H140.032C140.301 12.8098 140.555 12.7034 140.758 12.5267C140.961 12.35 141.102 12.1124 141.159 11.8495C141.199 11.7404 141.212 11.6234 141.198 11.5082C141.183 11.3929 141.141 11.2827 141.076 11.1869C141.01 11.0911 140.923 11.0126 140.82 10.9574C140.718 10.9022 140.604 10.8719 140.488 10.8695H139.54L139.144 12.8304Z" fill="#3CA9C7"/>
<path d="M59.7163 0.842651H94.6892C95.1399 0.851841 95.5686 1.03944 95.8808 1.36462C96.1931 1.6898 96.3633 2.12581 96.3542 2.57654V24.2509C96.3633 24.7016 96.1931 25.1371 95.8808 25.4623C95.5686 25.7875 95.1399 25.9756 94.6892 25.9847H59.7163C59.2656 25.9756 58.8369 25.7875 58.5246 25.4623C58.2124 25.1371 58.0421 24.7016 58.0513 24.2509V2.57654C58.0421 2.12581 58.2124 1.6898 58.5246 1.36462C58.8369 1.03944 59.2656 0.851841 59.7163 0.842651Z" fill="#5870BE"/>
<path d="M74.8063 13.4094C74.8067 11.6337 75.3336 9.89792 76.3204 8.42162C77.3073 6.94531 78.7097 5.79479 80.3503 5.11547C81.991 4.43614 83.7962 4.25861 85.5378 4.60521C87.2794 4.95181 88.8792 5.80702 90.1348 7.06273C91.3903 8.31845 92.2454 9.91827 92.5918 11.6599C92.9382 13.4015 92.7603 15.2068 92.0808 16.8474C91.4013 18.488 90.2507 19.89 88.7743 20.8767C87.2979 21.8634 85.562 22.3902 83.7863 22.3904C82.6069 22.3904 81.4391 22.1581 80.3495 21.7068C79.2599 21.2554 78.2699 20.594 77.436 19.76C76.6022 18.926 75.9407 17.936 75.4895 16.8464C75.0383 15.7568 74.8061 14.5888 74.8063 13.4094Z" fill="#FFAF38"/>
<path d="M70.0272 22.3885C68.4961 22.3883 66.9905 21.9967 65.6534 21.2508C64.3163 20.5049 63.1921 19.4295 62.3877 18.1268C61.5832 16.8241 61.1252 15.3375 61.0571 13.8079C60.989 12.2784 61.3132 10.7565 61.9987 9.38753C62.6843 8.0185 63.7085 6.84789 64.9741 5.98616C66.2396 5.12443 67.7044 4.60037 69.2295 4.46419C70.7545 4.328 72.289 4.58398 73.6872 5.20784C75.0854 5.83169 76.3009 6.80275 77.2182 8.02864H76.0183V8.62874H77.6312C77.7522 8.81974 77.8663 9.0176 77.9723 9.2176H75.4182V9.8177H78.2612C78.3492 10.0177 78.4283 10.2178 78.4983 10.4178H74.8182V11.0174H78.6862C79.1724 12.7914 79.1054 14.6717 78.4942 16.4066H74.8182V17.0067H78.2572C78.1672 17.2137 78.0703 17.4065 77.9723 17.5975H75.4182V18.1976H77.6242C77.4912 18.4076 77.3523 18.6087 77.2113 18.7977H76.0183V19.3978H76.7182C75.8755 20.3382 74.8441 21.0905 73.6913 21.6058C72.5384 22.1211 71.29 22.3877 70.0272 22.3885Z" fill="#E63737"/>
<path d="M60.176 15.0615L60.7227 10.8015L61.5712 10.9104L62.1925 14.0561C62.2494 14.3489 62.2902 14.5678 62.3149 14.7127C62.3833 14.564 62.488 14.346 62.6292 14.0589L64.0296 11.2259L64.788 11.3232L64.2413 15.5832L63.6979 15.5134L64.1555 11.948L62.46 15.3546L61.9515 15.2893L61.1848 11.5047L60.7194 15.1312L60.176 15.0615ZM67.1466 15.5691C66.9317 15.7089 66.7299 15.8011 66.541 15.8458C66.3541 15.8908 66.158 15.9 65.9526 15.8737C65.6136 15.8302 65.3636 15.7144 65.2026 15.5264C65.0419 15.3364 64.9781 15.1126 65.0112 14.8549C65.0305 14.7038 65.0821 14.5706 65.1658 14.4554C65.2517 14.3384 65.3547 14.2492 65.4748 14.1878C65.5969 14.1267 65.7301 14.0857 65.8746 14.0649C65.9808 14.0509 66.1391 14.0447 66.3496 14.0461C66.7784 14.0499 67.097 14.0298 67.3055 13.9856C67.3166 13.9142 67.3235 13.8688 67.3259 13.8494C67.3533 13.6363 67.3232 13.4798 67.2355 13.38C67.117 13.2447 66.9261 13.1601 66.6626 13.1263C66.4166 13.0947 66.2289 13.1149 66.0995 13.1869C65.9723 13.2573 65.8666 13.3983 65.7823 13.61L65.2799 13.4746C65.3544 13.2617 65.4536 13.0952 65.5773 12.9752C65.7012 12.8533 65.8686 12.7694 66.0792 12.7236C66.2901 12.6758 66.5283 12.6689 66.7937 12.703C67.0572 12.7368 67.2673 12.7953 67.424 12.8784C67.5807 12.9615 67.6917 13.0555 67.757 13.1604C67.8226 13.2633 67.8616 13.3885 67.8742 13.5358C67.8802 13.6271 67.8683 13.7891 67.8385 14.0215L67.749 14.7189C67.6866 15.2052 67.6577 15.5146 67.6624 15.6471C67.6692 15.7779 67.698 15.9067 67.7487 16.0333L67.2024 15.9632C67.162 15.8477 67.1435 15.7164 67.1466 15.5691ZM67.2529 14.3953C67.0531 14.4485 66.7599 14.4778 66.3732 14.4833C66.1542 14.4867 65.9977 14.5021 65.9036 14.5294C65.8095 14.5567 65.7334 14.605 65.6753 14.6743C65.6174 14.7417 65.5826 14.821 65.5709 14.912C65.553 15.0515 65.5904 15.1744 65.6831 15.2808C65.7777 15.3875 65.9267 15.4539 66.1301 15.48C66.3316 15.5059 66.5164 15.4853 66.6845 15.4182C66.8529 15.3492 66.9837 15.243 67.0769 15.0994C67.1483 14.9884 67.1987 14.8177 67.2283 14.5871L67.2529 14.3953ZM68.3057 15.1684L68.8333 15.1535C68.8358 15.3645 68.8958 15.5336 69.0134 15.661C69.1329 15.7886 69.3118 15.8676 69.55 15.8982C69.7903 15.929 69.9747 15.9035 70.1034 15.8215C70.2323 15.7377 70.3052 15.6298 70.3221 15.4981C70.3373 15.3799 70.2979 15.2804 70.2039 15.1994C70.1382 15.1437 69.9675 15.0617 69.692 14.9535C69.3208 14.8074 69.0651 14.6899 68.9249 14.6011C68.7869 14.5105 68.6871 14.3982 68.6255 14.2643C68.5661 14.1287 68.5461 13.9853 68.5655 13.8342C68.5831 13.6967 68.6304 13.5738 68.7073 13.4655C68.7864 13.3555 68.8852 13.2688 69.0036 13.2052C69.0927 13.1556 69.2096 13.1194 69.3543 13.0966C69.5012 13.0721 69.655 13.0702 69.8158 13.0908C70.058 13.1219 70.2656 13.184 70.4388 13.2771C70.6138 13.3705 70.7373 13.4828 70.809 13.6141C70.881 13.7435 70.9207 13.91 70.928 14.1138L70.4077 14.1179C70.4048 13.9561 70.3529 13.8234 70.252 13.7198C70.153 13.6166 70.0018 13.5519 69.7984 13.5258C69.5582 13.4949 69.3816 13.5126 69.2688 13.5789C69.1559 13.6451 69.0926 13.7315 69.0789 13.8381C69.0702 13.9059 69.0837 13.9696 69.1194 14.0294C69.1548 14.091 69.2157 14.1461 69.302 14.1946C69.3518 14.2207 69.5001 14.285 69.7469 14.3875C70.1042 14.5338 70.3514 14.6483 70.4885 14.7308C70.6278 14.8117 70.7314 14.9176 70.7992 15.0484C70.8671 15.1792 70.8896 15.3337 70.8668 15.5119C70.8444 15.6862 70.7719 15.8443 70.6494 15.9861C70.529 16.1262 70.3674 16.2266 70.1647 16.2872C69.9622 16.3459 69.7399 16.3597 69.4978 16.3286C69.0967 16.2772 68.8014 16.1546 68.6116 15.9609C68.4237 15.7675 68.3218 15.5033 68.3057 15.1684ZM72.5743 16.177L72.5906 16.6488C72.4394 16.6609 72.3056 16.6595 72.1894 16.6445C71.9996 16.6202 71.8562 16.5713 71.7593 16.4978C71.6624 16.4243 71.5988 16.3364 71.5686 16.2341C71.5387 16.1298 71.5439 15.9207 71.5841 15.6069L71.812 13.8314L71.4284 13.7822L71.4806 13.3754L71.8642 13.4246L71.9623 12.6604L72.5227 12.4133L72.3843 13.4914L72.9103 13.5589L72.8581 13.9657L72.3321 13.8982L72.1006 15.7027C72.0814 15.8519 72.0778 15.9489 72.0898 15.9938C72.1037 16.0389 72.1294 16.0766 72.1668 16.107C72.2062 16.1377 72.2646 16.158 72.3421 16.1679C72.4002 16.1754 72.4776 16.1784 72.5743 16.177ZM75.2687 15.9882L75.8006 16.1244C75.6748 16.4292 75.4855 16.654 75.2326 16.7988C74.9797 16.9436 74.6741 16.9929 74.3157 16.9469C73.8643 16.889 73.5237 16.7045 73.2938 16.3934C73.0662 16.0807 72.9845 15.6734 73.0489 15.1717C73.1155 14.6525 73.3009 14.2667 73.6051 14.0143C73.9092 13.7619 74.2744 13.663 74.7005 13.7177C75.1132 13.7707 75.4322 13.9544 75.6577 14.2688C75.8832 14.5833 75.9632 14.9953 75.8978 15.5048C75.8939 15.5358 75.8869 15.5821 75.877 15.6439L73.5756 15.3485C73.5515 15.69 73.614 15.9619 73.7633 16.1642C73.9126 16.3665 74.1161 16.4842 74.3738 16.5173C74.5655 16.5419 74.7357 16.5125 74.8842 16.4292C75.0328 16.3458 75.1609 16.1988 75.2687 15.9882ZM73.6599 14.9222L75.383 15.1433C75.3931 14.8808 75.3522 14.6776 75.2604 14.5339C75.1196 14.311 74.9166 14.1826 74.6512 14.1485C74.4109 14.1177 74.1982 14.1721 74.0129 14.3118C73.8295 14.4517 73.7118 14.6552 73.6599 14.9222ZM76.3355 17.1353L76.7315 14.0492L77.2023 14.1097L77.1422 14.5775C77.2904 14.374 77.4194 14.2439 77.529 14.187C77.6407 14.1305 77.7575 14.11 77.8796 14.1257C78.0558 14.1483 78.2278 14.2275 78.3955 14.3632L78.1531 14.8254C78.0349 14.7334 77.9119 14.6792 77.784 14.6628C77.6697 14.6482 77.5626 14.6699 77.4626 14.7279C77.3628 14.784 77.2858 14.8706 77.2314 14.9877C77.1494 15.1662 77.0942 15.3659 77.0659 15.5867L76.8585 17.2024L76.3355 17.1353ZM81.6211 16.2954L82.1666 16.5101C81.989 16.958 81.7305 17.2842 81.3912 17.4887C81.054 17.6916 80.6636 17.7646 80.22 17.7076C79.7609 17.6487 79.3989 17.5077 79.1341 17.2847C78.8715 17.06 78.6874 16.7607 78.5818 16.3868C78.4782 16.0131 78.4524 15.6229 78.5046 15.2161C78.5616 14.7725 78.6954 14.3968 78.9062 14.0891C79.1192 13.7797 79.3926 13.5598 79.7264 13.4293C80.0623 13.2972 80.4182 13.2552 80.7941 13.3035C81.2202 13.3582 81.5647 13.5126 81.8275 13.7669C82.0902 14.0212 82.2535 14.3523 82.3173 14.7602L81.7455 14.8197C81.6865 14.4971 81.5721 14.253 81.4023 14.0875C81.2326 13.9219 81.0053 13.8209 80.7205 13.7843C80.3931 13.7423 80.1089 13.7856 79.868 13.9142C79.6289 14.043 79.4478 14.2344 79.3246 14.4884C79.2017 14.7404 79.1222 15.0069 79.0862 15.2878C79.0397 15.65 79.0513 15.9735 79.1211 16.2581C79.1931 16.5411 79.3319 16.7637 79.5376 16.9259C79.7432 17.0882 79.9758 17.186 80.2354 17.2193C80.5512 17.2598 80.8302 17.2031 81.0725 17.0491C81.3147 16.8951 81.4976 16.6438 81.6211 16.2954ZM84.6863 17.82C84.4715 17.9598 84.2696 18.0521 84.0808 18.0968C83.8938 18.1417 83.6977 18.151 83.4924 18.1246C83.1533 18.0811 82.9033 17.9653 82.7424 17.7773C82.5817 17.5873 82.5178 17.3635 82.5509 17.1059C82.5703 16.9548 82.6218 16.8216 82.7056 16.7063C82.7915 16.5893 82.8945 16.5002 83.0146 16.4388C83.1366 16.3776 83.2699 16.3366 83.4143 16.3158C83.5205 16.3019 83.6788 16.2956 83.8894 16.297C84.3181 16.3008 84.6368 16.2807 84.8453 16.2366C84.8564 16.1651 84.8632 16.1197 84.8657 16.1004C84.893 15.8873 84.8629 15.7308 84.7753 15.6309C84.6568 15.4956 84.4658 15.411 84.2023 15.3772C83.9563 15.3456 83.7686 15.3659 83.6393 15.4379C83.5121 15.5082 83.4064 15.6492 83.3221 15.8609L82.8196 15.7255C82.8942 15.5126 82.9933 15.3461 83.117 15.2261C83.241 15.1042 83.4083 15.0203 83.619 14.9745C83.8299 14.9267 84.0681 14.9199 84.3335 14.9539C84.5969 14.9878 84.807 15.0462 84.9637 15.1293C85.1204 15.2125 85.2314 15.3065 85.2967 15.4113C85.3623 15.5143 85.4014 15.6394 85.414 15.7867C85.42 15.8781 85.4081 16.04 85.3782 16.2725L85.2887 16.9699C85.2263 17.4561 85.1974 17.7655 85.2021 17.898C85.2089 18.0289 85.2377 18.1576 85.2884 18.2842L84.7421 18.2141C84.7018 18.0987 84.6832 17.9673 84.6863 17.82ZM84.7927 16.6463C84.5929 16.6994 84.2997 16.7287 83.913 16.7342C83.694 16.7376 83.5374 16.753 83.4433 16.7803C83.3493 16.8076 83.2732 16.8559 83.215 16.9253C83.1572 16.9927 83.1224 17.0719 83.1107 17.1629C83.0928 17.3024 83.1302 17.4254 83.2229 17.5318C83.3175 17.6384 83.4665 17.7048 83.6699 17.7309C83.8714 17.7568 84.0562 17.7362 84.2243 17.6692C84.3926 17.6002 84.5234 17.4939 84.6167 17.3503C84.688 17.2393 84.7385 17.0686 84.7681 16.8381L84.7927 16.6463ZM85.9306 18.3666L86.3266 15.2806L86.7974 15.341L86.7374 15.8089C86.8856 15.6054 87.0145 15.4752 87.1242 15.4184C87.2358 15.3619 87.3526 15.3414 87.4747 15.3571C87.651 15.3797 87.823 15.4589 87.9906 15.5946L87.7482 16.0568C87.63 15.9648 87.507 15.9106 87.3792 15.8942C87.2649 15.8795 87.1577 15.9012 87.0577 15.9593C86.958 16.0154 86.8809 16.102 86.8265 16.2191C86.7445 16.3976 86.6893 16.5973 86.661 16.8181L86.4537 18.4338L85.9306 18.3666ZM89.9203 18.8787L89.9703 18.4893C89.7354 18.7703 89.4281 18.8864 89.0484 18.8376C88.8023 18.8061 88.5844 18.7092 88.3945 18.547C88.2065 18.385 88.071 18.1756 87.9877 17.9188C87.9067 17.6603 87.8865 17.3731 87.927 17.0574C87.9665 16.7494 88.0536 16.477 88.1884 16.2403C88.3234 16.0016 88.5021 15.8286 88.7246 15.7213C88.9471 15.614 89.1853 15.5766 89.439 15.6092C89.625 15.633 89.7856 15.694 89.9207 15.7921C90.056 15.8882 90.1611 16.0051 90.236 16.1427L90.4322 14.6142L90.9523 14.681L90.4056 18.9409L89.9203 18.8787ZM88.4646 17.1264C88.4138 17.5216 88.4592 17.8277 88.6007 18.0447C88.7422 18.2618 88.9263 18.3848 89.1529 18.4139C89.3815 18.4433 89.5872 18.3751 89.7699 18.2095C89.9548 18.0423 90.0719 17.7668 90.1211 17.3833C90.1753 16.9609 90.1337 16.6405 89.9964 16.4221C89.859 16.2036 89.6712 16.0791 89.4329 16.0485C89.2004 16.0186 88.9935 16.0886 88.8123 16.2583C88.6329 16.4283 88.517 16.7176 88.4646 17.1264Z" fill="white"/>
<path d="M1.84922 1.04041H36.8313C37.0545 1.04483 37.2747 1.09344 37.4792 1.18298C37.6838 1.27253 37.8687 1.40135 38.0234 1.56238C38.1781 1.7234 38.2997 1.91348 38.381 2.12146C38.4623 2.32944 38.5017 2.55152 38.4972 2.77478V24.4506C38.506 24.9013 38.3355 25.337 38.0231 25.662C37.7106 25.987 37.282 26.1745 36.8313 26.1835H1.84922C1.3985 26.1745 0.969755 25.987 0.657329 25.662C0.344903 25.337 0.174368 24.9013 0.183208 24.4506V2.77478C0.178698 2.55152 0.218249 2.32944 0.299541 2.12146C0.380833 1.91348 0.502252 1.7234 0.656963 1.56238C0.811674 1.40135 0.996587 1.27253 1.20115 1.18298C1.40572 1.09344 1.62596 1.04483 1.84922 1.04041Z" fill="#353A40"/>
<path d="M22.8722 17.6047C22.6078 17.4703 22.3904 17.2586 22.2483 16.9983C22.0779 16.6796 21.995 16.3218 22.0083 15.9607C21.9936 15.7146 22.0279 15.4679 22.1093 15.2351C22.1906 15.0023 22.3175 14.7882 22.4823 14.6047C22.6575 14.4378 22.8652 14.3086 23.0924 14.2253C23.3197 14.1421 23.5616 14.1062 23.8032 14.1204C24.0467 14.1047 24.2908 14.1389 24.5205 14.221C24.7502 14.303 24.9608 14.4311 25.1393 14.5974C25.3026 14.7774 25.4281 14.9883 25.5087 15.2175C25.5892 15.4468 25.6231 15.6898 25.6083 15.9324C25.6231 16.2841 25.5545 16.6342 25.4082 16.9544C25.276 17.2149 25.0702 17.431 24.8163 17.5754C24.5189 17.7327 24.1854 17.8094 23.8492 17.7976C23.513 17.8097 23.1785 17.7438 22.8722 17.6047ZM23.2782 15.1878C23.1493 15.4261 23.0818 15.6927 23.0818 15.9636C23.0818 16.2346 23.1493 16.5012 23.2782 16.7395C23.3462 16.8133 23.4288 16.8721 23.5208 16.9124C23.6127 16.9527 23.7119 16.9739 23.8123 16.9739C23.9126 16.9739 24.0118 16.9527 24.1038 16.9124C24.1957 16.8721 24.2782 16.8133 24.3462 16.7395C24.4978 16.4922 24.5645 16.202 24.5363 15.9133C24.5578 15.6528 24.487 15.3931 24.3363 15.1795C24.2702 15.103 24.1876 15.0427 24.0947 15.0027C24.0019 14.9627 23.9013 14.944 23.8003 14.9485C23.7008 14.9457 23.602 14.9657 23.5115 15.0071C23.421 15.0485 23.3411 15.1106 23.2782 15.1878ZM13.3662 17.7615C13.1919 17.7443 13.0224 17.6948 12.8662 17.6155C12.7246 17.5382 12.5997 17.4338 12.4983 17.3084C12.3945 17.1893 12.3165 17.0504 12.2693 16.8997C12.2079 16.7054 12.1743 16.5033 12.1693 16.2996V14.1814H13.2402V16.3494C13.2354 16.4318 13.247 16.5146 13.2743 16.5925C13.3016 16.6705 13.3441 16.7421 13.3993 16.8035C13.5206 16.9077 13.6752 16.9651 13.8352 16.9651C13.9952 16.9651 14.1499 16.9077 14.2712 16.8035C14.3264 16.7415 14.3688 16.669 14.3959 16.5906C14.423 16.5122 14.4343 16.4293 14.4292 16.3464V14.1785H15.5002V16.2966C15.5008 16.5008 15.467 16.7038 15.4003 16.8967C15.3386 17.0804 15.236 17.2473 15.1002 17.3855C14.9805 17.5161 14.8334 17.6184 14.6693 17.6853C14.4281 17.7693 14.1736 17.8094 13.9182 17.8035C13.7339 17.7998 13.55 17.7855 13.3673 17.7605L13.3662 17.7615ZM28.5052 17.7376L27.2052 15.7854V17.7376H26.1952V14.1824H27.1952L28.5043 16.1487V14.1824H29.5162V17.7376H28.5052ZM18.5272 17.7376L17.2273 15.7854V17.7376H16.2173V14.1824H17.2173L18.5253 16.1487V14.1824H19.5372V17.7376H18.5272ZM20.2972 17.7283V14.1795H21.3772V17.7283H20.2972ZM12.0923 12.7473C11.8608 12.5075 11.7233 12.1925 11.7052 11.8596L12.7273 11.7947C12.738 11.9334 12.784 12.0667 12.8612 12.1824C12.9169 12.254 12.9891 12.3111 13.0717 12.3489C13.1542 12.3867 13.2446 12.4043 13.3352 12.3997C13.4632 12.4082 13.5899 12.3683 13.6903 12.2883C13.7279 12.2586 13.7583 12.221 13.7794 12.178C13.8005 12.135 13.8118 12.0877 13.8124 12.0398C13.813 11.9919 13.8028 11.9446 13.7827 11.9011C13.7626 11.8576 13.7331 11.819 13.6963 11.7883C13.5301 11.6806 13.3423 11.6103 13.1462 11.5823C12.7808 11.5211 12.4355 11.3733 12.1393 11.1506C12.0416 11.0656 11.964 10.9597 11.9121 10.8411C11.8602 10.7224 11.8354 10.594 11.8392 10.4646C11.8397 10.2809 11.8936 10.1012 11.9943 9.94752C12.1082 9.7761 12.2709 9.64289 12.4613 9.56471C12.7338 9.46035 13.0248 9.41288 13.3163 9.42555C13.6732 9.40173 14.0286 9.49048 14.3323 9.67945C14.4548 9.77639 14.5552 9.89856 14.627 10.0374C14.6987 10.1762 14.7401 10.3286 14.7483 10.4846L13.7362 10.5457C13.723 10.4128 13.6628 10.2889 13.5663 10.1965C13.4642 10.1186 13.3374 10.08 13.2092 10.0877C13.1086 10.0803 13.0087 10.1091 12.9272 10.1687C12.8973 10.1927 12.8731 10.2229 12.8567 10.2576C12.8402 10.2922 12.8319 10.3301 12.8323 10.3684C12.8331 10.3984 12.8406 10.4277 12.8542 10.4544C12.8679 10.481 12.8874 10.5046 12.9113 10.5227C13.0205 10.5923 13.1437 10.6365 13.2722 10.6526C13.6198 10.717 13.9585 10.8223 14.2812 10.9666C14.4632 11.0538 14.6168 11.1907 14.7242 11.3616C14.8171 11.5208 14.8649 11.7022 14.8623 11.8865C14.8635 12.1104 14.7992 12.3296 14.6772 12.5173C14.5518 12.7111 14.372 12.8635 14.1603 12.9553C13.895 13.0624 13.6102 13.1136 13.3242 13.1047C12.8826 13.1509 12.4404 13.022 12.0923 12.7463V12.7473ZM28.5062 13.0374L27.2063 11.0847V13.0374H26.1963V9.48267H27.1963L28.5052 11.4495V9.48267H29.5172V13.0374H28.5062ZM24.6312 13.0374L24.0573 11.9504C24.0111 11.8474 23.9448 11.7546 23.8623 11.6775C23.7854 11.6225 23.6929 11.5934 23.5983 11.5945H23.5033V13.0374H22.4242V9.48267H24.2133C24.4699 9.4726 24.7265 9.50186 24.9742 9.56959C25.1482 9.62642 25.298 9.73996 25.3993 9.89234C25.5105 10.0634 25.5667 10.2646 25.5603 10.4685C25.5648 10.6467 25.5223 10.8231 25.4373 10.9797C25.3548 11.1221 25.238 11.2411 25.0973 11.3264C24.9798 11.3932 24.8525 11.4412 24.7202 11.4685C24.8194 11.4978 24.9138 11.5415 25.0002 11.5984C25.0645 11.654 25.1219 11.7171 25.1713 11.7864C25.2283 11.8548 25.2789 11.9287 25.3223 12.0066L25.8423 13.0374H24.6312ZM23.5043 10.9216H23.9573C24.0533 10.9147 24.1483 10.8983 24.2412 10.8733C24.3109 10.859 24.3729 10.8196 24.4153 10.7625C24.4604 10.703 24.4843 10.6301 24.4833 10.5554C24.4864 10.5061 24.4784 10.4568 24.4598 10.4109C24.4413 10.365 24.4127 10.3237 24.3762 10.2903C24.2565 10.2168 24.1159 10.1849 23.9762 10.1995H23.5043V10.9216ZM18.9043 13.0374V9.48267H21.7822V10.2415H19.9823V10.8064H21.6543V11.5325H19.9823V12.2327H21.8373V13.0374H18.9043ZM16.2522 13.0374V10.3606H15.1572V9.48267H18.4222V10.3606H17.3223V13.0374H16.2522ZM8.38721 13.0374V9.48267H11.2653V10.2415H9.46521V10.8064H11.1362V11.5325H9.45728V12.2327H11.3103V13.0374H8.38721ZM6.22021 13.0374L5.61121 10.7986L5.00427 13.0374H3.95129L3.17822 9.48267H4.19824L4.56531 11.4724L5.10327 9.48267H6.11926L6.6582 11.4705L7.02527 9.48267H8.04028L7.27429 13.0374H6.22021Z" fill="#ECD345"/>
<path d="M34.3073 17.7997V9.4198H35.5072V17.7997H34.3073ZM31.3173 17.7997V9.4198H32.5172V17.7997H31.3173Z" fill="#ECD345"/>
<defs>
<linearGradient id="paint0_linear_8_1873" x1="193.452" y1="25.9847" x2="193.452" y2="0.842651" gradientUnits="userSpaceOnUse">
<stop stop-color="#E59703"/>
<stop offset="0.231" stop-color="#E59703"/>
<stop offset="0.234" stop-color="white"/>
<stop offset="0.761" stop-color="white"/>
<stop offset="0.766" stop-color="#5457BB"/>
<stop offset="1" stop-color="#5457BB"/>
</linearGradient>
</defs>
</svg>
