<svg width="70" height="79" viewBox="0 0 70 79" fill="none" xmlns="http://www.w3.org/2000/svg">
<path d="M56.075 17.3342L52.3034 22.1782C57.6495 26.322 61.3337 32.2444 62.6881 38.8714C64.0424 45.4985 62.9773 52.3915 59.6857 58.3006C56.3941 64.2097 51.0941 68.7438 44.7465 71.0806C38.399 73.4174 31.4242 73.4024 25.0868 71.0382C18.7494 68.674 13.4689 64.1171 10.2029 58.1938C6.93687 52.2706 5.90145 45.373 7.2844 38.7519C8.66734 32.1307 12.3771 26.2243 17.741 22.1036C23.1049 17.9828 29.7679 15.9205 36.5218 16.2907L31.2151 21.8576L35.1514 25.6141L43.5282 16.8137L47.2809 12.8724L43.3509 9.13092L34.5568 0.75293L30.8015 4.69426L36.5293 10.1505C27.7438 9.75044 19.1388 12.7306 12.4826 18.4785C5.82631 24.2265 1.62445 32.3056 0.740461 41.0556C-0.143525 49.8057 2.35751 58.562 7.72961 65.5251C13.1017 72.4882 20.9368 77.1293 29.6248 78.4945C31.4175 78.7778 33.2296 78.9203 35.0446 78.9207C42.2097 78.9028 49.1906 76.6489 55.0133 72.4734C60.8361 68.2979 65.2103 62.409 67.5258 55.6283C69.8412 48.8476 69.9825 41.5133 67.9297 34.6484C65.877 27.7836 61.7327 21.7307 56.075 17.3342Z" fill="#FF6875"/>
<path d="M38.3413 62.0579V58.5252C42.5303 58.0575 46.6049 55.4124 46.6049 50.3886C46.6049 43.5632 40.2586 42.7813 35.6233 42.2105C32.66 41.856 30.3908 41.4448 30.3908 39.6496C30.3908 37.1528 33.9109 36.8837 35.4196 36.8837C37.6649 36.8837 40.0612 37.9398 40.8758 39.2862L41.1122 39.6785L45.7638 37.5236L45.5338 37.0547C44.8434 35.6897 43.8232 34.5186 42.5657 33.6477C41.3082 32.7768 39.8531 32.2336 38.3325 32.0674V28.9558H32.8888V32.0523C27.8135 32.8066 24.7987 35.6177 24.7987 39.6483C24.7987 46.2197 30.7654 46.886 35.1191 47.3751C38.9988 47.8327 40.8042 48.7907 40.8042 50.3923C40.8042 53.4436 36.5787 53.6812 35.2838 53.6812C32.401 53.6812 29.6264 52.2429 28.8168 50.332L28.6169 49.8606L23.5654 52.0016L23.7666 52.473C25.2639 55.9794 28.4962 58.1757 32.8951 58.6949V62.0579H38.3413Z" fill="#FF6875"/>
</svg>
