<svg width="69" height="90" viewBox="0 0 69 90" fill="none" xmlns="http://www.w3.org/2000/svg">
<path d="M0.515137 71.0262V89.5913H68.1827V71.0262C68.1801 68.9564 67.3567 66.9722 65.8931 65.5086C64.4296 64.045 62.4453 63.2217 60.3755 63.219H8.32236C6.25257 63.2217 4.26832 64.045 2.80476 65.5086C1.3412 66.9722 0.517798 68.9564 0.515137 71.0262H0.515137ZM5.71995 71.0262C5.72095 70.3363 5.99545 69.675 6.48328 69.1871C6.97111 68.6993 7.63246 68.4248 8.32236 68.4238H10.9248V84.3903H5.71995V71.0262ZM16.1308 68.4238H22.8606L34.3489 79.9121L45.8372 68.4238H52.5633V84.3903H16.1308V68.4238ZM62.9779 71.0262V84.3865H57.7731V68.42H60.3755C61.0661 68.421 61.728 68.6961 62.2159 69.1847C62.7039 69.6734 62.9779 70.3357 62.9779 71.0262ZM38.4763 68.4238L34.3489 72.5512L30.2215 68.4238H38.4763Z" fill="#FF6875"/>
<path d="M53.8205 52.8042H57.7769V47.5994H60.3793C62.4491 47.5967 64.4333 46.7733 65.8969 45.3098C67.3605 43.8462 68.1839 41.862 68.1865 39.7922V34.5874C68.1862 25.6136 64.621 17.0075 58.2754 10.6623C51.9297 4.3171 43.3234 0.752596 34.3496 0.75293C25.3758 0.753263 16.7697 4.3184 10.4245 10.6641C4.0793 17.0097 0.514803 25.6161 0.515137 34.5899L0.515137 39.7947C0.517798 41.8645 1.3412 43.8487 2.80476 45.3123C4.26832 46.7758 6.25257 47.5992 8.32236 47.6019H12.2649C13.7124 51.7011 16.2723 55.3164 19.6582 58.043C23.0441 60.7696 27.1221 62.4998 31.4357 63.0398C35.7492 63.5798 40.128 62.9083 44.0815 61.1005C48.035 59.2928 51.4072 56.4201 53.8205 52.8042ZM60.3793 42.3933H57.626C57.7229 41.5292 57.7716 40.6604 57.7719 39.7909V34.5861C57.7716 33.7166 57.7229 32.8478 57.626 31.9837H60.3743C61.0642 31.9847 61.7255 32.2592 62.2133 32.747C62.7012 33.2349 62.9757 33.8962 62.9767 34.5861V39.7909C62.977 40.4817 62.7031 41.1443 62.2151 41.6332C61.7271 42.1222 61.065 42.3974 60.3743 42.3983L60.3793 42.3933ZM34.3489 5.96089C40.6067 5.96894 46.69 8.02349 51.6712 11.8112C56.6524 15.5989 60.258 20.9119 61.9382 26.9398C61.4239 26.8351 60.9004 26.7824 60.3755 26.7827H56.4317C54.8171 22.2159 51.8265 18.262 47.8716 15.4655C43.9167 12.669 39.1921 11.1673 34.3483 11.1673C29.5046 11.1673 24.7799 12.669 20.825 15.4655C16.8701 18.262 13.8795 22.2159 12.2649 26.7827H8.32236C7.7975 26.7824 7.27395 26.8351 6.75966 26.9398C8.43984 20.9119 12.0455 15.5989 17.0267 11.8112C22.0079 8.02349 28.0912 5.96894 34.3489 5.96089ZM49.2946 24.1853C47.6118 26.5892 45.3754 28.553 42.7742 29.9109C40.173 31.2688 37.2833 31.9811 34.3489 31.9875H16.3169C16.838 28.3689 18.436 24.991 20.9031 22.2931C23.3702 19.5952 26.5922 17.7023 30.1498 16.8606C33.7074 16.0189 37.4361 16.2674 40.8505 17.5737C44.265 18.8801 47.2073 21.1839 49.2946 24.1853ZM8.32236 42.3983C7.63246 42.3974 6.97111 42.1229 6.48328 41.635C5.99545 41.1472 5.72095 40.4858 5.71995 39.7959V34.5911C5.72095 33.9012 5.99545 33.2399 6.48328 32.7521C6.97111 32.2642 7.63246 31.9897 8.32236 31.9887H11.0756C10.9787 32.8528 10.93 33.7216 10.9298 34.5911V39.7959C10.93 40.6654 10.9787 41.5343 11.0756 42.3983H8.32236ZM16.1296 39.7959V37.1935H34.3489C37.6444 37.1874 40.9018 36.4886 43.9097 35.1423C46.9176 33.796 49.6089 31.8323 51.809 29.3788C52.3147 31.0695 52.5709 32.8251 52.5696 34.5899V39.7947C52.5724 42.4958 51.971 45.1633 50.8095 47.6019H42.1562L39.8655 45.3163C38.4012 46.7804 36.4153 47.6029 34.3445 47.6029C32.2738 47.6029 30.2879 46.7804 28.8235 45.3163L25.1437 48.9961C27.3586 51.2109 30.298 52.5526 33.4224 52.7747C36.5467 52.9969 39.6464 52.0847 42.1524 50.2056V52.8042H47.0806C44.5193 55.3133 41.2743 57.0103 37.7524 57.6825C34.2305 58.3546 30.5886 57.972 27.2832 56.5827C23.9779 55.1933 21.1564 52.859 19.1724 49.8725C17.1884 46.8859 16.1303 43.3801 16.1308 39.7947L16.1296 39.7959Z" fill="#FF6875"/>
</svg>
