<svg width="101" height="67" viewBox="0 0 101 67" fill="none" xmlns="http://www.w3.org/2000/svg">
<path d="M100.816 34.7478C100.816 34.729 100.816 34.7101 100.816 34.6913C100.808 34.0835 100.56 33.5036 100.126 33.0775C99.6927 32.6515 99.1085 32.4137 98.5007 32.4157H97.8922L88.4808 14.2366C88.2849 13.8594 87.9888 13.5435 87.6251 13.3237C87.2613 13.1039 86.844 12.9887 86.419 12.9907H70.3607L70.973 8.13414C71.0732 7.20551 70.9752 6.26617 70.6854 5.37823C70.3956 4.4903 69.9207 3.67401 69.2919 2.98333C68.6631 2.29264 67.8949 1.74329 67.038 1.37161C66.1811 0.999943 65.2551 0.814415 64.3211 0.827287H14.4806C13.8717 0.830542 13.2856 1.05925 12.8354 1.46927C12.3852 1.87929 12.1029 2.44155 12.0429 3.0475L11.54 7.04792H39.9402C40.3753 7.04567 40.8063 7.13117 41.2076 7.29929C41.6088 7.46743 41.972 7.71473 42.2755 8.02644C42.579 8.33815 42.8165 8.70785 42.9739 9.11345C43.1312 9.51904 43.2052 9.95221 43.1913 10.387C43.1637 11.2789 42.7912 12.1252 42.1522 12.748C41.5133 13.3707 40.6577 13.7214 39.7655 13.7262H30.2937V13.74H2.48442C1.85412 13.7432 1.2496 13.9906 0.797849 14.4302C0.346099 14.8697 0.0822734 15.4673 0.0617918 16.0972C0.051637 16.405 0.103691 16.7116 0.214836 16.9987C0.32598 17.2858 0.49393 17.5476 0.708626 17.7683C0.923322 17.9889 1.18035 18.164 1.46431 18.283C1.74827 18.402 2.05333 18.4625 2.36121 18.4608H39.1846C40.0217 18.588 40.7832 19.0177 41.3248 19.6684C41.8665 20.3192 42.1508 21.146 42.124 21.9923C42.0939 22.9432 41.698 23.8457 41.0188 24.5119C40.3395 25.178 39.4294 25.5562 38.4781 25.5677H13.0965C12.4584 25.571 11.8466 25.822 11.39 26.2676C10.9334 26.7132 10.6676 27.3187 10.6487 27.9564C10.6382 28.2673 10.6906 28.5771 10.8027 28.8673C10.9148 29.1575 11.0844 29.422 11.3012 29.6451C11.5181 29.8681 11.7777 30.0451 12.0646 30.1654C12.3514 30.2857 12.6597 30.3468 12.9707 30.3451H38.0594C38.9046 30.4616 39.6769 30.8861 40.2282 31.5372C40.7796 32.1883 41.071 33.02 41.0466 33.8728C41.0166 34.8282 40.6173 35.7348 39.9327 36.4019C39.2481 37.0689 38.3314 37.4445 37.3755 37.4496H8.59693H6.17808C5.54005 37.4529 4.92824 37.7038 4.47161 38.1494C4.01497 38.595 3.7492 39.2005 3.73031 39.8382C3.71981 40.1491 3.77219 40.459 3.88432 40.7491C3.99645 41.0393 4.16601 41.3038 4.38284 41.5269C4.59967 41.7499 4.85931 41.9269 5.14619 42.0472C5.43307 42.1675 5.74128 42.2286 6.05236 42.2269H8.13931L7.32339 50.7684C7.22331 51.6969 7.32145 52.6361 7.61134 53.5239C7.90122 54.4116 8.37624 55.2278 9.00499 55.9183C9.63375 56.6089 10.4019 57.1581 11.2587 57.5297C12.1155 57.9013 13.0414 58.0868 13.9752 58.0739H15.7768C16.1996 60.4941 17.4652 62.6865 19.3495 64.263C21.2338 65.8394 23.6153 66.6981 26.072 66.687C28.5709 66.6696 30.9909 65.8099 32.9408 64.247C34.8907 62.684 36.2564 60.5091 36.8173 58.0739H59.2848C61.0782 58.0579 62.8084 57.4092 64.1703 56.2422C65.4229 57.4355 67.0919 58.0928 68.8219 58.0739H69.1915C69.6143 60.4941 70.8799 62.6865 72.7642 64.263C74.6485 65.8394 77.03 66.6981 79.4867 66.687C81.9856 66.6696 84.4056 65.8099 86.3555 64.247C88.3054 62.684 89.6712 60.5091 90.232 58.0739H91.7118C93.6191 58.0372 95.4474 57.3057 96.8536 56.0166C98.2598 54.7275 99.1472 52.9695 99.3493 51.0726L100.803 34.9804C100.803 34.959 100.803 34.9377 100.803 34.915C100.803 34.8924 100.809 34.8497 100.81 34.8157C100.811 34.7818 100.816 34.7667 100.816 34.7478ZM26.1965 61.9134C25.4199 61.9168 24.6505 61.7638 23.9344 61.4634C23.2182 61.1631 22.5698 60.7215 22.028 60.1651C21.4862 59.6087 21.062 58.9489 20.7807 58.2251C20.4994 57.5012 20.3668 56.728 20.3907 55.9518C20.4421 54.36 21.1078 52.85 22.2484 51.7385C23.389 50.627 24.9157 50.0004 26.5083 49.9901C27.2849 49.9867 28.0542 50.1398 28.7704 50.4402C29.4866 50.7405 30.1349 51.1821 30.6768 51.7385C31.2186 52.2948 31.6428 52.9546 31.9241 53.6785C32.2054 54.4024 32.338 55.1755 32.314 55.9518C32.2627 57.5436 31.5969 59.0536 30.4564 60.1651C29.3158 61.2766 27.7891 61.9032 26.1965 61.9134ZM79.6137 61.9134C78.8371 61.9168 78.0678 61.7638 77.3516 61.4634C76.6354 61.1631 75.9871 60.7215 75.4452 60.1651C74.9034 59.6087 74.4792 58.9489 74.1979 58.2251C73.9166 57.5012 73.784 56.728 73.808 55.9518C73.8593 54.36 74.5251 52.85 75.6656 51.7385C76.8062 50.627 78.3329 50.0004 79.9255 49.9901C80.7021 49.9867 81.4715 50.1398 82.1876 50.4402C82.9038 50.7405 83.5522 51.1821 84.094 51.7385C84.6358 52.2948 85.06 52.9546 85.3413 53.6785C85.6226 54.4024 85.7552 55.1755 85.7313 55.9518C85.6799 57.5436 85.0142 59.0536 83.8736 60.1651C82.733 61.2766 81.2063 61.9032 79.6137 61.9134ZM94.6033 50.7633C94.5234 51.4477 94.2 52.0805 93.6923 52.5463C93.1845 53.012 92.5262 53.2797 91.8375 53.3004H90.2383C89.7105 50.9975 88.4146 48.9428 86.5638 47.4743C84.7131 46.0057 82.4176 45.2108 80.055 45.2203C77.6501 45.237 75.3155 46.0337 73.4021 47.4908C71.4887 48.9478 70.0998 50.9865 69.4442 53.3004H68.9527C68.668 53.3068 68.3851 53.2531 68.1226 53.1429C67.86 53.0326 67.6236 52.8682 67.4289 52.6604C67.2383 52.4452 67.095 52.1923 67.0083 51.9181C66.9217 51.6439 66.8937 51.3545 66.926 51.0688L69.9333 17.753H76.8391L75.7453 29.885C75.645 30.8136 75.743 31.7529 76.0328 32.6409C76.3226 33.5288 76.7976 34.3451 77.4264 35.0358C78.0552 35.7265 78.8234 36.2758 79.6803 36.6475C80.5372 37.0192 81.4632 37.2047 82.3972 37.1918H95.8279L94.6033 50.7633Z" fill="#FF6875"/>
</svg>
