<svg width="135" height="45" viewBox="0 0 135 45" fill="none" xmlns="http://www.w3.org/2000/svg">
<rect y="0.627686" width="44" height="44" rx="16" fill="#40BFFF"/>
<path fill-rule="evenodd" clip-rule="evenodd" d="M31.0619 20.8992C32.0165 21.8538 32.0165 23.4016 31.0619 24.3562L23.7285 31.6895C22.7739 32.6441 21.2262 32.6441 20.2716 31.6895L12.9382 24.3562C11.9836 23.4016 11.9836 21.8538 12.9382 20.8992L20.2716 13.5659C21.2262 12.6113 22.7739 12.6113 23.7285 13.5659L31.0619 20.8992ZM22.0001 18.7513L18.1237 22.6277L22.0001 26.5041L25.8764 22.6277L22.0001 18.7513Z" fill="white"/>
<path d="M59.1714 17.7695H51.4314V30.4055H59.1714V27.9395H54.5094V25.1675H58.6314V22.7915H54.5094V20.2355H59.1714V17.7695ZM60.9897 25.3655H68.9097V22.8095H60.9897V25.3655ZM71.0891 24.0695C71.0891 27.8495 73.7171 30.4955 77.4431 30.4955C80.4491 30.4955 82.7171 28.8215 83.4371 26.0855H80.0531C79.5311 27.1655 78.5771 27.7055 77.4071 27.7055C75.5171 27.7055 74.2211 26.3015 74.2211 24.0695C74.2211 21.8375 75.5171 20.4335 77.4071 20.4335C78.5771 20.4335 79.5311 20.9735 80.0531 22.0535H83.4371C82.7171 19.3175 80.4491 17.6255 77.4431 17.6255C73.7171 17.6255 71.0891 20.2895 71.0891 24.0695ZM95.1501 25.3835C95.1501 22.1975 92.8821 20.2175 89.9301 20.2175C86.9961 20.2175 84.7101 22.1975 84.7101 25.3835C84.7101 28.5695 86.9421 30.5495 89.8941 30.5495C92.8461 30.5495 95.1501 28.5695 95.1501 25.3835ZM87.8421 25.3835C87.8421 23.6735 88.8141 22.8815 89.9301 22.8815C91.0101 22.8815 92.0181 23.6735 92.0181 25.3835C92.0181 27.0755 90.9921 27.8855 89.8941 27.8855C88.7781 27.8855 87.8421 27.0755 87.8421 25.3835ZM110.625 30.4055H113.685V24.5375C113.685 21.8375 112.083 20.2535 109.599 20.2535C108.141 20.2535 106.881 21.0635 106.215 22.1255C105.531 20.9195 104.307 20.2535 102.795 20.2535C101.481 20.2535 100.455 20.8115 99.861 21.6215V20.3615H96.783V30.4055H99.861V24.9515C99.861 23.6375 100.617 22.9175 101.787 22.9175C102.957 22.9175 103.713 23.6375 103.713 24.9515V30.4055H106.773V24.9515C106.773 23.6375 107.529 22.9175 108.699 22.9175C109.869 22.9175 110.625 23.6375 110.625 24.9515V30.4055ZM129.68 30.4055H132.74V24.5375C132.74 21.8375 131.138 20.2535 128.654 20.2535C127.196 20.2535 125.936 21.0635 125.27 22.1255C124.586 20.9195 123.362 20.2535 121.85 20.2535C120.536 20.2535 119.51 20.8115 118.916 21.6215V20.3615H115.838V30.4055H118.916V24.9515C118.916 23.6375 119.672 22.9175 120.842 22.9175C122.012 22.9175 122.768 23.6375 122.768 24.9515V30.4055H125.828V24.9515C125.828 23.6375 126.584 22.9175 127.754 22.9175C128.924 22.9175 129.68 23.6375 129.68 24.9515V30.4055Z" fill="#22262A"/>
</svg>
